<?xml version="1.0" standalone="no"?><!DOCTYPE svg PUBLIC "-//W3C//DTD SVG 1.1//EN" "http://www.w3.org/Graphics/SVG/1.1/DTD/svg11.dtd"><svg t="1713237679156" class="icon" viewBox="0 0 1024 1024" version="1.1" xmlns="http://www.w3.org/2000/svg" p-id="10500" xmlns:xlink="http://www.w3.org/1999/xlink" width="16" height="16"><path d="M923.761778 403.683556h-43.406222V967.111111h-86.641778V403.683556h-43.349334a43.349333 43.349333 0 0 1-43.292444-43.349334v-43.349333c0-23.893333 19.342222-43.349333 43.292444-43.349333h173.397334c23.893333 0 43.349333 19.399111 43.349333 43.349333v43.349333a43.349333 43.349333 0 0 1-43.349333 43.349334zM793.713778 56.888889h86.641778v173.397333h-86.641778V56.888889z m-173.340445 693.532444h-43.406222V967.111111H490.382222v-216.689778h-43.349333a43.349333 43.349333 0 0 1-43.349333-43.349333v-43.349333c0-23.893333 19.399111-43.292444 43.349333-43.292445h173.397333c23.893333 0 43.349333 19.342222 43.349334 43.292445v43.349333c0 23.950222-19.399111 43.349333-43.349334 43.349333zM490.325333 56.888889h86.641778v520.192H490.382222V56.888889z m-216.746666 476.842667h-43.292445V967.111111H143.587556V533.731556h-43.349334A43.349333 43.349333 0 0 1 56.888889 490.382222v-43.349333c0-23.893333 19.399111-43.349333 43.349333-43.349333H273.635556c23.893333 0 43.292444 19.399111 43.292444 43.349333v43.349333c0 23.893333-19.342222 43.349333-43.292444 43.349334zM143.644444 56.888889h86.698667v303.388444H143.587556V56.888889z" fill="#2c2c2c" p-id="10501"></path></svg>