<svg t="1712387738437" class="icon" viewBox="0 0 1024 1024" version="1.1" xmlns="http://www.w3.org/2000/svg"
    p-id="19309" width="16" height="16">
    <path
        d="M951.375887 7.262411c65.361702 0 65.361702 50.836879 65.361702 116.198582v784.340425c0 65.361702 0 116.198582-65.361702 116.198582H65.361702c-65.361702 0-65.361702-50.836879-65.361702-116.198582V123.460993C0 58.099291 0 7.262411 65.361702 7.262411h886.014185zM275.971631 123.460993c0 21.787234 14.524823 36.312057 36.312057 36.312057s36.312057-14.524823 36.312057-36.312057-14.524823-36.312057-36.312057-36.312057c-14.524823 0-36.312057 14.524823-36.312057 36.312057z m152.510639 0c7.262411 21.787234 21.787234 36.312057 36.312056 36.312057 21.787234 0 36.312057-14.524823 36.312057-36.312057s-14.524823-36.312057-36.312057-36.312057c-14.524823 0-36.312057 14.524823-36.312056 36.312057z m522.893617 856.964539c14.524823 0 21.787234-7.262411 21.787234-14.524823V232.397163H50.836879v733.503546c0 7.262411 7.262411 14.524823 21.787234 14.524823h878.751774zM159.77305 159.77305c21.787234 0 36.312057-14.524823 36.312056-36.312057s-14.524823-36.312057-36.312056-36.312057c-14.524823 0-36.312057 14.524823-36.312057 36.312057s21.787234 36.312057 36.312057 36.312057z m588.255319 326.80851l-65.361702 58.099291c7.262411 14.524823 7.262411 29.049645 14.524822 50.836879l29.049646-21.787234c14.524823-7.262411 29.049645-7.262411 36.312056 7.262412l72.624114 65.361702c14.524823 14.524823 14.524823 29.049645 0 43.574468-14.524823 14.524823-36.312057 14.524823-50.836879 0l-50.83688-43.574468-36.312057 14.524823c0 21.787234-7.262411 43.574468-14.524822 65.361702h65.361702c7.262411 0 14.524823 0 21.787234 7.262411l65.361702 65.361702c14.524823 14.524823 14.524823 29.049645 0 43.574468-14.524823 14.524823-36.312057 14.524823-50.836879 0l-58.099291-50.836879H646.35461h-7.262411c-36.312057 36.312057-79.886525 65.361702-130.723405 65.361702s-94.411348-21.787234-130.723404-65.361702H290.496454l-58.099291 50.836879c-7.262411 7.262411-21.787234 14.524823-29.049645 7.262412-14.524823 0-21.787234-14.524823-21.787234-21.787234 0-14.524823 0-21.787234 7.262411-29.049646l65.361702-65.361702c7.262411 0 14.524823-7.262411 21.787234-7.262411h65.361702c0-21.787234-7.262411-43.574468-7.262411-65.361702L290.496454 639.092199l-58.099291 50.836879c-7.262411 7.262411-21.787234 7.262411-29.049645 7.262411-14.524823 0-21.787234-14.524823-21.787234-21.787234 0-14.524823 0-21.787234 7.262411-29.049645l72.624114-58.099291c7.262411-7.262411 29.049645-14.524823 36.312056-7.262411l36.312057 14.524822c0-14.524823 7.262411-36.312057 14.524823-50.836879l-65.361702-58.099291-50.83688 43.574468c-14.524823 14.524823-36.312057 14.524823-50.836879 0-14.524823-14.524823-14.524823-29.049645 0-43.574468l65.361702-65.361702c14.524823-14.524823 29.049645-14.524823 43.574468 0l79.886525 65.361702c14.524823-14.524823 29.049645-36.312057 50.836879-43.574468l-29.049645-36.312057c-14.524823-14.524823-14.524823-29.049645-7.262412-43.574468 14.524823-14.524823 36.312057-14.524823 50.83688 0l58.099291 50.83688h36.312056l58.099291-50.83688c14.524823-14.524823 36.312057-14.524823 50.83688 0 14.524823 14.524823 14.524823 29.049645 0 43.574468l-36.312057 36.312057c21.787234 14.524823 36.312057 29.049645 50.836879 43.574468l72.624114-65.361702c14.524823-7.262411 36.312057-7.262411 43.574468 0l65.361702 65.361702c14.524823 14.524823 14.524823 29.049645 0 43.574468-14.524823 14.524823-36.312057 14.524823-50.836879 0l-36.312057-43.574468z m-232.397163 305.021277c65.361702 0 116.198582-72.624113 116.198581-159.77305 0-87.148936-50.836879-159.77305-116.198581-159.773049-65.361702 0-116.198582 72.624113-116.198582 159.773049 0 87.148936 50.836879 159.77305 116.198582 159.77305z m0-217.872341c7.262411 0 14.524823 0 21.787234 7.262412 7.262411 7.262411 7.262411 14.524823 7.262411 21.787234v65.361702c0 14.524823-14.524823 29.049645-36.312057 29.049645s-36.312057-14.524823-36.312056-29.049645v-65.361702c0-7.262411 0-14.524823 7.262411-21.787234 14.524823-7.262411 21.787234-7.262411 36.312057-7.262412z m0 0"
        fill="rgb(255, 143, 70)" p-id="19310"></path>
</svg>